<?xml version="1.0" standalone="no"?>
<!DOCTYPE svg PUBLIC "-//W3C//DTD SVG 20010904//EN"
 "http://www.w3.org/TR/2001/REC-SVG-20010904/DTD/svg10.dtd">
<svg version="1.0" xmlns="http://www.w3.org/2000/svg"
 width="304.000000pt" height="315.000000pt" viewBox="0 0 304.000000 315.000000"
 preserveAspectRatio="xMidYMid meet">

<g transform="translate(0.000000,315.000000) scale(0.100000,-0.100000)"
fill="#000000" stroke="none">
<path d="M0 1575 l0 -1575 1520 0 1520 0 0 1575 0 1575 -1520 0 -1520 0 0
-1575z m2021 1465 l23 -69 80 -3 81 -3 -62 -45 c-35 -25 -63 -50 -63 -56 0 -6
9 -37 20 -69 11 -32 20 -62 20 -67 0 -6 -29 11 -64 36 l-63 45 -63 -44 c-35
-25 -65 -43 -67 -42 -2 2 8 36 22 76 l24 72 -59 42 c-33 23 -60 45 -60 49 0 4
34 8 76 10 l77 3 20 68 c11 37 24 67 28 67 4 0 18 -31 30 -70z m-550 -320 l23
-69 80 -3 81 -3 -62 -45 c-35 -25 -63 -50 -63 -56 0 -6 9 -37 20 -69 11 -32
20 -62 20 -67 0 -6 -29 11 -64 36 l-63 45 -63 -44 c-35 -25 -65 -43 -67 -42
-2 2 8 36 22 76 l24 72 -59 42 c-33 23 -60 45 -60 49 0 4 34 8 76 10 l77 3 20
68 c11 37 24 67 28 67 4 0 18 -31 30 -70z m1100 -20 l23 -69 80 -3 81 -3 -62
-45 c-35 -25 -63 -50 -63 -56 0 -6 9 -37 20 -69 11 -32 20 -62 20 -67 0 -6
-29 11 -64 36 l-63 45 -63 -44 c-35 -25 -65 -43 -67 -42 -2 2 8 36 22 76 l24
72 -59 42 c-33 23 -60 45 -60 49 0 4 34 8 76 10 l77 3 20 68 c11 37 24 67 28
67 4 0 18 -31 30 -70z m-799 -290 c13 -5 156 -62 318 -125 162 -64 301 -122
308 -129 10 -10 85 -237 99 -302 6 -27 -153 -221 -202 -246 -32 -17 -35 -17
-156 22 -68 22 -131 40 -140 40 -10 0 -60 -91 -154 -282 -76 -156 -200 -409
-276 -563 -76 -154 -139 -286 -141 -294 -4 -18 44 -45 129 -71 133 -42 329
-25 512 46 36 14 77 30 91 35 14 5 57 30 95 54 39 25 79 50 90 57 45 29 203
198 250 268 46 69 133 234 162 305 13 34 93 289 98 314 5 24 12 58 29 131 8
36 17 90 21 120 l6 56 -44 32 -44 31 -63 -44 c-35 -25 -65 -43 -67 -42 -2 2 8
36 22 76 l24 72 -59 42 c-33 23 -60 45 -60 49 0 4 34 8 76 10 l77 3 20 68 c11
37 24 67 28 67 4 0 18 -31 30 -70 l23 -69 80 -3 80 -3 -60 -44 c-32 -24 -61
-46 -63 -47 -8 -7 10 -54 19 -49 51 32 67 -525 21 -750 -51 -251 -131 -437
-267 -621 -84 -113 -243 -261 -318 -295 -14 -7 -26 -15 -26 -19 0 -13 -241
-128 -325 -155 -98 -32 -183 -44 -313 -46 -134 -1 -228 16 -337 63 -49 21 -94
40 -99 41 -5 1 -18 -16 -30 -38 -16 -30 -31 -43 -59 -52 -37 -12 -41 -11 -107
28 -38 22 -71 48 -74 57 -27 96 -29 134 -11 184 18 50 18 50 -5 91 -13 23 -27
44 -31 47 -13 9 -78 155 -100 223 -58 182 -78 424 -54 642 6 53 43 259 51 287
10 32 -33 32 -73 -1 -57 -47 -92 -41 -124 21 -26 51 -55 61 -149 53 -109 -10
-180 -7 -257 10 -229 53 -294 225 -99 265 100 20 218 -10 367 -95 104 -60 133
-66 173 -34 63 50 129 35 152 -33 10 -31 15 -34 70 -41 73 -11 89 -19 88 -46
0 -11 3 -105 7 -208 9 -243 25 -337 90 -548 14 -46 93 -199 104 -202 6 -2 37
50 71 115 33 64 90 173 126 242 104 196 319 650 314 659 -3 4 -39 23 -80 41
-86 37 -79 25 -134 236 -24 88 -27 115 -18 130 19 35 176 223 194 233 22 13
75 14 104 1z m-661 -220 l23 -69 80 -3 81 -3 -62 -45 c-35 -25 -63 -50 -63
-56 0 -6 9 -37 20 -69 11 -32 20 -62 20 -67 0 -6 -29 11 -64 36 l-63 45 -63
-44 c-35 -25 -65 -43 -67 -42 -2 2 8 36 22 76 l24 72 -59 42 c-33 23 -60 45
-60 49 0 4 34 8 76 10 l77 3 20 68 c11 37 24 67 28 67 4 0 18 -31 30 -70z"/>
<path d="M1654 2223 l-78 -86 28 -106 c15 -58 33 -111 39 -118 9 -9 587 -213
603 -213 1 0 35 39 75 86 l73 86 -12 42 c-6 24 -21 69 -33 100 -18 49 -27 60
-58 73 -53 23 -480 192 -523 208 l-36 13 -78 -85z m410 -173 c117 -129 137
-167 84 -156 -13 3 -79 10 -148 16 -182 15 -210 20 -210 36 0 24 134 234 149
234 4 0 60 -59 125 -130z"/>
<path d="M1734 1544 c-47 -99 -123 -255 -169 -349 -46 -93 -126 -260 -179
-369 l-96 -199 22 -24 c12 -13 24 -23 28 -23 4 0 17 24 30 53 13 28 59 126
103 217 43 91 103 215 132 275 29 61 56 121 60 135 4 14 55 118 113 232 59
114 104 209 102 212 -3 2 -17 7 -33 11 -27 7 -28 5 -113 -171z"/>
<path d="M1048 298 c-3 -7 0 -30 5 -50 7 -30 19 -43 55 -63 45 -25 61 -22 62
11 0 10 -104 114 -114 114 -2 0 -6 -6 -8 -12z"/>
</g>
</svg>
